<?xml version="1.0" encoding="utf-8"?>
<!-- Generator: Adobe Illustrator 19.2.1, SVG Export Plug-In . SVG Version: 6.00 Build 0)  -->
<svg version="1.1" xmlns="http://www.w3.org/2000/svg" xmlns:xlink="http://www.w3.org/1999/xlink" x="0px" y="0px"
	 viewBox="0 0 497.2 111.5" style="enable-background:new 0 0 497.2 111.5;" xml:space="preserve">
<style type="text/css">
	.st0{fill:#ED1B23;}
	.st1{fill:#A1A3A6;}
	.st2{fill:none;}
</style>
<g>
	<path class="st0" d="M86.4,36.1c2.3,8.1,1.8,17.9-2,27.9c-7.2,18.6-23.6,31.4-39.2,31.8c0.2,0,0.4,0,0.6,0
		c25.3,0,45.8-18.3,45.8-40.8C91.6,48.2,89.7,41.7,86.4,36.1z"/>
	<path class="st0" d="M45.8,95.7 M45.8,14.2 M12.8,55c0-22.5,14.8-40.8,33-40.8C20.5,14.2,0,32.4,0,55c0,22.5,20.5,40.8,45.8,40.8
		C27.6,95.7,12.8,77.5,12.8,55z"/>
	<path class="st0" d="M39.6,109.9c9.7-11.4,16.6-29.8,17.9-50.7c1.5-26-6.2-48.7-18.5-59.4c7.8,13.6,12.1,36.8,10.5,63
		C48.4,80.9,44.8,97.3,39.6,109.9z"/>
	<path class="st0" d="M84.6,36c-2.1,0-3.8-0.6-5.1-1.7c-1.3-1.1-1.9-2.3-1.9-3.8c0-1.4,0.6-2.7,1.9-3.7c1.3-1.2,3-1.8,5.1-1.8
		c2.1,0,3.8,0.6,5.1,1.8c1.1,1.1,1.7,2.3,1.7,3.7c0,1.5-0.6,2.8-1.7,3.8C88.4,35.4,86.7,36,84.6,36z"/>
	<path class="st0" d="M47.3,34.8c-24.6,10.6-34.9,33.8-23,51.8c0.1,0.2,0.2,0.3,0.3,0.4C17.8,75.8,24.1,58,41,44.1
		c9-7.4,19.5-12.4,29.5-14.6C62.7,29.9,54.8,31.5,47.3,34.8z"/>
</g>
<g>
	<path d="M118.4,28.1v-2.9h5.9v2.9h8.4v4.3h-7c2.6,1.2,4.5,3.4,5.8,6.5c1.2,2.9,1.6,6.1,1.2,9.5c-0.4,3.4-1.6,6.4-3.4,8.7
		c-2.1,2.7-4.8,4-8.1,4c-3.3,0-5.9-1.4-8.1-4.2c-1.9-2.4-2.9-5.4-3.1-8.8c-0.2-3.7,0.1-6.9,1.1-9.5c1.1-3,3-5.1,5.6-6.3h-6.9v-4.3
		H118.4z M117,38.7c-0.9,1.9-1.3,4.2-1.3,6.9c0,2.9,0.4,5.5,1.3,7.7c1,2.5,2.4,3.7,4.2,3.7c1.8,0,3.2-1.2,4.3-3.7
		c1-2.2,1.4-4.7,1.4-7.7c0-2.7-0.5-5-1.4-6.9c-1.1-2.1-2.5-3.2-4.3-3.2C119.5,35.5,118.1,36.6,117,38.7L117,38.7z M142.4,25.4v15.6
		h4v4.4h-4V64h-5.9V25.4H142.4z M167.2,30.5c1.8,3.2,2.7,7.4,2.7,12.4c0,5.3-0.9,9.6-2.7,12.9c-1.9,3.6-4.6,5.4-8.1,5.4
		c-3.5,0-6.2-1.8-8.2-5.4c-1.8-3.3-2.7-7.6-2.7-12.9c0-5,0.9-9.1,2.7-12.4c2-3.5,4.7-5.3,8.2-5.3C162.6,25.2,165.3,27,167.2,30.5
		L167.2,30.5z M155.4,33.4c-0.8,2.4-1.2,5.6-1.2,9.4c0,4.2,0.4,7.5,1.2,10.1c0.9,2.7,2.1,4.1,3.7,4.1c1.6,0,2.8-1.4,3.6-4.1
		c0.8-2.5,1.2-5.9,1.2-10.1c0-3.8-0.4-7-1.2-9.4c-0.9-2.6-2.1-4-3.6-4C157.5,29.4,156.3,30.7,155.4,33.4L155.4,33.4z M180.8,25.4V64
		h-5.9V25.4H180.8z M206.9,26.2v33.3h-15.3c-1.7,0-2.9-0.4-3.7-1.2c-0.8-0.7-1.2-1.9-1.2-3.3V26.2H206.9z M192.7,30.4v24.9h8.4V30.4
		H192.7z M218.5,25.4V64h-5.9V25.4H218.5z M245.3,30.4h-14.7v24.8h19.8V25.4h5.9V64h-5.9v-4.5h-20.6c-1.8,0-3.1-0.4-3.9-1.3
		c-0.8-0.8-1.2-2-1.2-3.5V26.2h20.6V30.4z"/>
	<path d="M280.4,56c-1.9,3.4-4.6,5.2-8,5.2c-3.5,0-6.2-1.8-8.2-5.4c-1.8-3.3-2.7-7.6-2.7-12.9c0-5,0.9-9.1,2.7-12.4
		c2-3.5,4.7-5.3,8.2-5.3c3,0,5.4,1.3,7.3,4c1.7,2.5,2.8,5.7,3.2,9.8h5.1V25.4h5.9V64h-5.9V43.5h-4.9C283.2,48.6,282.2,52.8,280.4,56
		L280.4,56z M268.7,33.4c-0.8,2.4-1.2,5.6-1.2,9.4c0,4.2,0.4,7.5,1.2,10.1c0.9,2.7,2.1,4.1,3.7,4.1c1.6,0,2.8-1.4,3.6-4.1
		c0.8-2.5,1.2-5.9,1.2-10.1c0-3.8-0.4-7-1.2-9.4c-0.9-2.6-2.1-4-3.6-4C270.8,29.4,269.6,30.7,268.7,33.4L268.7,33.4z"/>
	<path d="M338.4,47.3h-5.9v-9.7H324c-1.4,2.7-3.4,4.9-6.2,6.6c-2.6,1.6-6.1,2.8-10.4,3.6l-2-3.4c3-0.7,5.6-1.6,7.7-2.7
		c2.1-1.2,3.6-2.5,4.5-3.9h-10.3v-4.3h12.4c0.1-0.5,0.2-0.9,0.3-1.4c0.1-0.5,0.2-1.1,0.2-1.7h-13.9v-4.3h19.7c0,1.3-0.1,2.6-0.2,3.7
		c-0.1,1.1-0.3,2.3-0.5,3.3h7.1v-7.9h5.9V47.3z M338.5,49.3v14.3h-24.9c-1.6,0-2.9-0.4-3.7-1.2c-0.8-0.8-1.2-1.8-1.2-3.2v-9.9H338.5
		z M314.6,53.7v5.5h17.9v-5.5H314.6z M377.9,47.5v4.4H372V64H366V51.9h-11V64h-5.9V51.9h-6v-4.4H377.9z M376.4,26.2v4.3h-4.5v8.9
		h4.5v4.3h-31.9v-4.3h4.7v-8.9h-4.7v-4.3H376.4z M355.1,30.5v8.9H366v-8.9H355.1z M401.1,26.2v4.3h-12.8v9.3h11.5V44h-11.5v11.2
		h19.8V43.9h-5.9v-4.2h5.9V25.4h5.9V64h-5.9v-4.5h-20.3c-1.8,0-3.2-0.4-4-1.1c-0.9-0.7-1.4-1.9-1.4-3.5V26.2H401.1z M427,27.7v-2.5
		h5.9v2.5h8.2v4.1H435c2.5,0.7,4.3,1.8,5.4,3.4c1,1.5,1.2,3.3,0.7,5.3c-0.5,1.8-1.7,3.3-3.6,4.5c-2.1,1.3-4.7,2-7.7,2
		c-3.1,0-5.7-0.7-7.7-2c-1.8-1.2-3-2.7-3.5-4.4c-0.5-2.1-0.3-3.8,0.6-5.3c1-1.6,2.8-2.8,5.4-3.4h-6.1v-4.1H427z M451.2,49.9v14.1
		h-5.9v-9.7h-23.9v-4.3H451.2z M425.7,35.7c-0.9,0.8-1.3,1.7-1.3,2.9c0,1.1,0.4,2.1,1.3,2.9c1,1,2.4,1.4,4.1,1.4
		c1.7,0,3.1-0.5,4.2-1.4c0.9-0.9,1.4-1.8,1.4-2.9c0-1.1-0.5-2.1-1.4-2.9c-1-0.9-2.4-1.3-4.2-1.3C428.1,34.4,426.8,34.8,425.7,35.7
		L425.7,35.7z M451.2,25.4v9.1h4v4.4h-4v8.4h-5.9V25.4H451.2z M483.6,42.5v-17h5.9v30h-5.9v-2.2h-6.7v-4.3h6.7v-2.1h-12.7v6.5h-5.2
		v6.1h24.1v4.3H465c-1.9,0-3.3-0.3-4.1-1c-0.8-0.7-1.2-1.8-1.2-3.2v-7.5h5.2v-5.1h-9v-4.3H483.6z M477.1,27.7
		c1.9,1.5,2.8,3.3,2.8,5.6c0,2.2-0.9,4.1-2.8,5.6c-2.1,1.7-5,2.5-8.7,2.5c-3.7,0-6.5-0.8-8.7-2.5c-1.9-1.5-2.8-3.4-2.8-5.6
		c0-2.3,0.9-4.1,2.8-5.6c2.1-1.7,5-2.5,8.7-2.5C472.1,25.2,475,26,477.1,27.7L477.1,27.7z M464.2,30.6c-0.9,0.7-1.3,1.6-1.3,2.7
		c0,1,0.4,1.9,1.3,2.6c1,0.8,2.4,1.2,4.2,1.2c1.8,0,3.2-0.4,4.2-1.2c0.9-0.7,1.4-1.5,1.4-2.6c0-1.1-0.5-2-1.4-2.7
		c-1-0.7-2.4-1.1-4.2-1.1C466.6,29.5,465.2,29.9,464.2,30.6L464.2,30.6z"/>
</g>
<g>
	<path class="st1" d="M111.2,73.2h3.6v5h7.4v-5h3.6v13.2h-3.6v-5.7h-7.4v5.7h-3.6V73.2z"/>
	<path class="st1" d="M129.3,73.2h3.6v13.2h-3.6V73.2z"/>
	<path class="st1" d="M149.4,73.2h5.3v13.2h-3.5V75.8h0L147,86.4h-3l-4.2-10.6h0v10.6h-3.5V73.2h5.3l3.9,9.5L149.4,73.2z"/>
	<path class="st1" d="M158.1,73.2h12.3v2.5h-8.8v2.7h8.3v2.4h-8.3v3h8.8v2.5h-12.4V73.2z"/>
	<path class="st1" d="M173.4,73.2h8.2c2.2,0,3.8,0.6,4.9,1.7c1.1,1.2,1.6,2.8,1.6,4.9c0,2-0.5,3.7-1.6,4.8c-1,1.2-2.6,1.8-4.6,1.8
		h-8.5V73.2z M177,83.9h4c1.2,0,2-0.4,2.6-1.1c0.6-0.7,0.8-1.8,0.8-3.2c0-1.3-0.3-2.3-0.9-2.9c-0.6-0.7-1.6-1-2.9-1H177V83.9z"/>
	<path class="st1" d="M191.1,73.2h3.6v13.2h-3.6V73.2z"/>
	<path class="st1" d="M207.7,83.7h-6.1l-1.1,2.7h-3.9l5.8-13.2h4.3l5.8,13.2h-3.9L207.7,83.7z M204.6,76l-2.1,5.2h4.1L204.6,76z"/>
	<path class="st1" d="M233.4,78.2c-0.2-0.9-0.6-1.6-1.3-2.1c-0.7-0.5-1.5-0.7-2.5-0.7c-0.8,0-1.5,0.1-2,0.4c-0.5,0.3-1,0.6-1.3,1.1
		c-0.3,0.5-0.5,0.9-0.6,1.4c-0.1,0.5-0.2,1-0.2,1.5c0,0.5,0.1,1,0.2,1.5c0.1,0.5,0.3,1,0.6,1.4c0.3,0.5,0.7,0.8,1.3,1.1
		c0.5,0.3,1.2,0.4,2,0.4c0.9,0,1.8-0.2,2.5-0.7c0.7-0.5,1.1-1.2,1.3-2.2h3.9c-0.1,0.9-0.4,1.8-0.8,2.5c-0.4,0.7-1,1.3-1.7,1.7
		c-0.7,0.4-1.5,0.8-2.4,1c-0.9,0.2-1.9,0.3-3,0.3c-1.2,0-2.3-0.1-3.3-0.4c-1-0.3-1.8-0.7-2.5-1.3c-0.7-0.6-1.2-1.3-1.6-2.2
		c-0.4-0.9-0.5-1.9-0.5-3.1c0-1.2,0.2-2.3,0.5-3.1c0.4-0.9,0.9-1.6,1.6-2.2c0.7-0.6,1.5-1,2.5-1.3c1-0.3,2-0.4,3.3-0.4
		c0.9,0,1.8,0.1,2.6,0.2c0.8,0.1,1.6,0.4,2.3,0.8c0.7,0.4,1.4,0.9,1.9,1.7c0.5,0.7,0.8,1.6,0.9,2.7H233.4z"/>
	<path class="st1" d="M239.6,77.4c0.2-0.8,0.6-1.5,1.2-2.2c0.6-0.7,1.4-1.3,2.5-1.7c1.1-0.4,2.5-0.7,4.2-0.7c1.7,0,3.1,0.2,4.2,0.7
		s1.9,1,2.5,1.7c0.6,0.7,1,1.4,1.2,2.2c0.2,0.8,0.3,1.6,0.3,2.4c0,0.8-0.1,1.6-0.3,2.4c-0.2,0.8-0.6,1.5-1.2,2.2
		c-0.6,0.7-1.4,1.3-2.5,1.7c-1.1,0.4-2.5,0.7-4.2,0.7c-1.7,0-3.1-0.2-4.2-0.7c-1.1-0.4-1.9-1-2.5-1.7c-0.6-0.7-1-1.4-1.2-2.2
		c-0.2-0.8-0.3-1.6-0.3-2.4C239.3,79,239.4,78.2,239.6,77.4z M243.3,81.4c0.2,0.5,0.4,1,0.8,1.4c0.4,0.4,0.8,0.8,1.4,1
		c0.6,0.3,1.2,0.4,2,0.4c0.8,0,1.4-0.1,2-0.4c0.6-0.3,1-0.6,1.4-1c0.4-0.4,0.6-0.9,0.8-1.4c0.2-0.5,0.2-1.1,0.2-1.6
		c0-0.5-0.1-1.1-0.2-1.6c-0.2-0.5-0.4-1-0.8-1.4c-0.4-0.4-0.8-0.8-1.4-1c-0.6-0.3-1.2-0.4-2-0.4c-0.8,0-1.4,0.1-2,0.4s-1,0.6-1.4,1
		c-0.4,0.4-0.6,0.9-0.8,1.4c-0.2,0.5-0.2,1.1-0.2,1.6C243.1,80.3,243.1,80.9,243.3,81.4z"/>
	<path class="st1" d="M271.5,73.2h5.3v13.2h-3.5V75.8h0l-4.2,10.6h-3l-4.2-10.6h0v10.6h-3.5V73.2h5.3l3.9,9.5L271.5,73.2z"/>
	<path class="st1" d="M280.2,73.2h8.9c0.9,0,1.6,0.1,2.3,0.4c0.6,0.2,1.1,0.5,1.5,0.9c0.4,0.4,0.6,0.8,0.7,1.3
		c0.1,0.5,0.2,0.9,0.2,1.4c0,1.4-0.4,2.5-1.1,3.3c-0.7,0.8-1.8,1.2-3.3,1.2h-5.6v4.7h-3.6V73.2z M283.8,79.3h3.8c0.4,0,0.7,0,0.9,0
		c0.3,0,0.5-0.1,0.7-0.2c0.2-0.1,0.4-0.3,0.5-0.5c0.1-0.3,0.2-0.6,0.2-1c0-0.4-0.1-0.7-0.2-1c-0.1-0.3-0.3-0.5-0.5-0.6
		c-0.2-0.1-0.4-0.2-0.6-0.2c-0.2,0-0.5-0.1-0.8-0.1h-4.2V79.3z"/>
	<path class="st1" d="M296.4,73.2h3.6v7.6c0,0.5,0,0.9,0.1,1.2c0.1,0.4,0.2,0.7,0.4,1.1c0.2,0.4,0.5,0.6,1,0.9
		c0.5,0.2,1.1,0.3,1.9,0.3c0.8,0,1.4-0.1,1.9-0.3c0.5-0.2,0.8-0.5,1-0.9c0.2-0.4,0.3-0.7,0.4-1.1c0.1-0.4,0.1-0.8,0.1-1.2v-7.6h3.6
		v8.5c0,0.5-0.1,1.1-0.2,1.6c-0.1,0.5-0.4,1.1-0.8,1.6c-0.4,0.5-1.1,1-2.1,1.4c-1,0.4-2.2,0.5-3.8,0.5c-1.6,0-2.8-0.2-3.8-0.5
		c-1-0.4-1.7-0.8-2.1-1.4c-0.4-0.5-0.7-1.1-0.8-1.6c-0.1-0.5-0.2-1.1-0.2-1.6V73.2z"/>
	<path class="st1" d="M317.2,75.7h-4.9v-2.5h13.4v2.5h-4.9v10.7h-3.6V75.7z"/>
	<path class="st1" d="M327.8,73.2h12.3v2.5h-8.8v2.7h8.3v2.4h-8.3v3h8.8v2.5h-12.4V73.2z"/>
	<path class="st1" d="M343.2,73.2h9.6c0.9,0,1.6,0.1,2.2,0.3c0.6,0.2,1,0.5,1.3,0.9c0.3,0.4,0.5,0.7,0.6,1.1
		c0.1,0.4,0.2,0.8,0.2,1.2c0,0.8-0.2,1.5-0.5,2c-0.3,0.5-0.9,0.9-1.6,1.2v0c0.4,0.1,0.7,0.2,0.9,0.5c0.2,0.2,0.4,0.5,0.6,0.9
		c0.1,0.3,0.2,0.7,0.3,1.1c0,0.4,0.1,0.7,0.1,1.1c0,0.2,0,0.4,0,0.7c0,0.2,0,0.5,0.1,0.8c0,0.3,0.1,0.5,0.2,0.8
		c0.1,0.2,0.2,0.5,0.4,0.6h-3.9c-0.2-0.3-0.3-0.6-0.3-0.9c0-0.3-0.1-0.9-0.1-1.6c0-0.9-0.2-1.5-0.5-1.8c-0.3-0.3-0.8-0.5-1.4-0.5
		h-4.5v4.8h-3.6V73.2z M346.8,79h4.8c0.5,0,0.9-0.1,1.2-0.4c0.3-0.3,0.5-0.7,0.5-1.3c0-0.6-0.2-1-0.6-1.3c-0.4-0.3-0.8-0.4-1.4-0.4
		h-4.6V79z"/>
	<path class="st1" d="M367.6,73.2h3.6v13.2h-3.6V73.2z"/>
	<path class="st1" d="M385.8,73.2h3.5v13.2h-3.9l-7.2-9.2h0v9.2h-3.5V73.2h4.2l6.9,9.2h0V73.2z"/>
	<path class="st1" d="M401.6,77c0-0.4-0.2-0.7-0.4-1c-0.2-0.3-0.5-0.5-0.8-0.6c-0.3-0.1-0.6-0.2-1-0.3c-0.3,0-0.7-0.1-1.2-0.1
		c-0.7,0-1.3,0.1-1.8,0.4c-0.5,0.3-0.7,0.7-0.7,1.1c0,0.3,0.1,0.6,0.4,0.8c0.3,0.2,0.6,0.3,1.1,0.4l4.5,0.7c0.7,0.1,1.2,0.3,1.7,0.4
		c0.5,0.2,0.9,0.4,1.3,0.7c0.4,0.3,0.7,0.6,0.9,1.1c0.2,0.4,0.3,0.9,0.3,1.5c0,0.6-0.1,1.2-0.4,1.8c-0.2,0.5-0.6,1-1.2,1.4
		c-0.5,0.4-1.2,0.7-2.1,0.9c-0.9,0.2-2,0.3-3.2,0.3c-1,0-1.9,0-2.7-0.1c-0.8-0.1-1.6-0.3-2.3-0.6c-0.7-0.3-1.3-0.8-1.7-1.4
		c-0.4-0.6-0.7-1.4-0.7-2.4h4c0,0.4,0.1,0.8,0.3,1.1c0.2,0.3,0.5,0.5,0.8,0.7c0.3,0.2,0.7,0.3,1.1,0.3c0.4,0.1,0.8,0.1,1.2,0.1
		c0.9,0,1.6-0.1,2.1-0.4c0.5-0.3,0.8-0.7,0.8-1.2c0-0.5-0.2-0.8-0.5-1c-0.4-0.2-0.9-0.4-1.7-0.5l-3.3-0.5c-0.7-0.1-1.3-0.2-1.8-0.4
		c-0.5-0.2-1-0.4-1.4-0.6c-0.4-0.3-0.7-0.6-1-1.1c-0.2-0.5-0.4-1-0.4-1.6c0-1.4,0.6-2.5,1.7-3.1c1.1-0.7,2.7-1,4.9-1
		c0.8,0,1.6,0,2.3,0.1c0.8,0.1,1.5,0.3,2.2,0.6c0.7,0.3,1.3,0.7,1.7,1.3c0.5,0.6,0.7,1.3,0.8,2.2H401.6z"/>
	<path class="st1" d="M412.3,75.7h-4.9v-2.5h13.4v2.5h-4.9v10.7h-3.6V75.7z"/>
	<path class="st1" d="M423,73.2h3.6v13.2H423V73.2z"/>
	<path class="st1" d="M433.6,75.7h-4.9v-2.5h13.4v2.5h-4.9v10.7h-3.6V75.7z"/>
	<path class="st1" d="M444.1,73.2h3.6v7.6c0,0.5,0,0.9,0.1,1.2c0.1,0.4,0.2,0.7,0.4,1.1c0.2,0.4,0.5,0.6,1,0.9
		c0.5,0.2,1.1,0.3,1.9,0.3c0.8,0,1.4-0.1,1.9-0.3c0.5-0.2,0.8-0.5,1-0.9c0.2-0.4,0.3-0.7,0.4-1.1c0.1-0.4,0.1-0.8,0.1-1.2v-7.6h3.6
		v8.5c0,0.5-0.1,1.1-0.2,1.6c-0.1,0.5-0.4,1.1-0.8,1.6c-0.4,0.5-1.1,1-2.1,1.4c-1,0.4-2.2,0.5-3.8,0.5c-1.6,0-2.8-0.2-3.8-0.5
		c-1-0.4-1.7-0.8-2.1-1.4c-0.4-0.5-0.7-1.1-0.8-1.6c-0.1-0.5-0.2-1.1-0.2-1.6V73.2z"/>
	<path class="st1" d="M464.9,75.7H460v-2.5h13.4v2.5h-4.9v10.7h-3.6V75.7z"/>
	<path class="st1" d="M475.6,73.2h12.3v2.5h-8.8v2.7h8.3v2.4h-8.3v3h8.8v2.5h-12.4V73.2z"/>
</g>
<rect id="_x3C_분할_영역_x3E_" x="-0.8" class="st2" width="498" height="111"/>
<rect id="_x3C_분할_영역_x3E__1_" x="-1.8" y="-0.5" class="st2" width="499" height="112"/>
</svg>
